<?xml version="1.0" encoding="UTF-8"?>
<svg id="Layer_1" data-name="Layer 1" xmlns="http://www.w3.org/2000/svg" viewBox="0 0 110 110">
  <defs>
    <style>
      .cls-1 {
        fill: #3bb2ff;
      }

      .cls-1, .cls-2, .cls-3 {
        fill-rule: evenodd;
      }

      .cls-2 {
        fill: #fff;
      }

      .cls-3 {
        fill: #155dfc;
      }
    </style>
  </defs>
  <g id="Letter_V_Logo" data-name="Letter V Logo">
    <path class="cls-2" d="M55,110.52h0c30.38,0,55-24.62,55-55h0C110,25.14,85.38.52,55,.52h0C24.62.52,0,25.14,0,55.52h0c0,30.38,24.62,55,55,55Z"/>
    <g>
      <path class="cls-1" d="M50.91,55.3l13.68-24.98c.07-.12.13-.25.2-.36h19.53l-23.63,43.2h0s-9.78-17.85-9.78-17.85h0Z"/>
      <path class="cls-3" d="M25.67,44.85c2.17-3.97,5.97-5.95,9.76-5.95,3.56,0,7.12,1.75,9.34,5.22l.42.73,5.72,10.45-9.76,17.87-5.72-10.45-9.76-17.87Z"/>
      <g>
        <path class="cls-3" d="M41.15,73.17l1.6,2.94c3.62,6.63,12.69,6.63,16.33,0l1.62-2.94-9.76-17.87-9.78,17.87Z"/>
        <path class="cls-3" d="M41.15,73.17l1.6,2.94c3.62,6.63,12.69,6.63,16.33,0l1.62-2.94-9.76-17.87-9.78,17.87Z"/>
      </g>
    </g>
  </g>
</svg>